<!DOCTYPE svg PUBLIC "-//W3C//DTD SVG 1.1//EN" "http://www.w3.org/Graphics/SVG/1.1/DTD/svg11.dtd">
<!-- Uploaded to: SVG Repo, www.svgrepo.com, Transformed by: SVG Repo Mixer Tools -->
<svg fill="#319F43" height="800px" width="800px" version="1.1" id="Layer_1" xmlns="http://www.w3.org/2000/svg" xmlns:xlink="http://www.w3.org/1999/xlink" viewBox="0 0 512 512" xml:space="preserve" stroke="#319F43">
<g id="SVGRepo_bgCarrier" stroke-width="0"/>
<g id="SVGRepo_tracerCarrier" stroke-linecap="round" stroke-linejoin="round"/>
<g id="SVGRepo_iconCarrier"> <g> <g> <g> <path d="M53.333,447.997h85.333c5.888,0,10.667-4.779,10.667-10.667v-64c0-29.397-23.936-53.333-53.333-53.333 s-53.333,23.936-53.333,53.333v64C42.667,443.219,47.445,447.997,53.333,447.997z M64,373.331c0-17.643,14.357-32,32-32 s32,14.357,32,32v53.333H64V373.331z"/> <path d="M511.445,285.224c-0.085-0.299-0.064-0.597-0.171-0.896c-0.704-1.877-1.92-3.392-3.477-4.608 c-0.171-0.128-0.192-0.363-0.363-0.469L341.333,163.709V31.997c0-4.757-3.157-8.939-7.744-10.261L258.923,0.403 c-1.899-0.533-3.925-0.533-5.845,0l-74.667,21.333c-4.587,1.323-7.744,5.504-7.744,10.261v131.691L4.565,279.229 c-0.192,0.128-0.213,0.384-0.384,0.512c-1.515,1.195-2.731,2.709-3.435,4.565c-0.107,0.277-0.107,0.576-0.171,0.875 C0.32,286.099,0,286.995,0,287.997v213.333c0,5.888,4.779,10.667,10.667,10.667h490.667c5.888,0,10.667-4.779,10.667-10.667 V287.997C512,287.016,511.68,286.12,511.445,285.224z M170.667,490.664H21.333v-192h149.333V490.664z M170.667,277.331H44.672 l125.995-87.637V277.331z M320,490.664H192V40.04l64-18.283l64,18.283V490.664z M341.333,189.693l125.995,87.637H341.333V189.693 z M490.667,490.664H341.333v-192h149.333V490.664z"/> <path d="M213.333,149.331v74.667c0,5.888,4.779,10.667,10.667,10.667h64c5.888,0,10.667-4.779,10.667-10.667v-74.667 c0-23.531-19.136-42.667-42.667-42.667S213.333,125.8,213.333,149.331z M277.333,149.331v64h-42.667v-64 c0-11.755,9.579-21.333,21.333-21.333S277.333,137.576,277.333,149.331z"/> <path d="M256,277.331c-23.531,0-42.667,19.136-42.667,42.667v74.667c0,5.888,4.779,10.667,10.667,10.667h64 c5.888,0,10.667-4.779,10.667-10.667v-74.667C298.667,296.467,279.531,277.331,256,277.331z M277.333,383.997h-42.667v-64 c0-11.755,9.579-21.333,21.333-21.333s21.333,9.579,21.333,21.333V383.997z"/> <path d="M373.333,447.997h85.333c5.888,0,10.667-4.779,10.667-10.667v-64c0-29.397-23.936-53.333-53.333-53.333 s-53.333,23.936-53.333,53.333v64C362.667,443.219,367.445,447.997,373.333,447.997z M384,373.331c0-17.643,14.357-32,32-32 c17.643,0,32,14.357,32,32v53.333h-64V373.331z"/> </g> </g> </g> </g>
</svg>